<?xml version="1.0" standalone="no"?><!DOCTYPE svg PUBLIC "-//W3C//DTD SVG 1.1//EN" "http://www.w3.org/Graphics/SVG/1.1/DTD/svg11.dtd"><svg t="1701504909381" class="icon" viewBox="0 0 1024 1024" version="1.1" xmlns="http://www.w3.org/2000/svg" p-id="2427" data-spm-anchor-id="a313x.search_index.0.i1.6fd83a81XFrc2d" xmlns:xlink="http://www.w3.org/1999/xlink" width="200" height="200"><path d="M770.9 161.9H648.4v-30.4c0-17.4-14.3-31.7-31.7-31.7h-1.8c-17.4 0-31.7 14.3-31.7 31.7v30.4H414.8v-30.4c0-17.4-14.3-31.7-31.7-31.7h-1.8c-17.4 0-31.7 14.3-31.7 31.7v30.4H227.2c-36.6 0-66.3 29.7-66.3 66.3V886c0 36.6 29.7 66.3 66.3 66.3h543.7c36.6 0 66.3-29.7 66.3-66.3V228.2c0-36.6-29.8-66.3-66.3-66.3z m-421.2 65.4v18.3c0 17.4 14.2 31.7 31.7 31.7h1.8c17.4 0 31.7-14.3 31.7-31.7v-18.1l168.4 0.3v17.8c0 17.4 14.2 31.7 31.7 31.7h1.8c17.4 0 31.7-14.3 31.7-31.7V228l123.6 0.3v112.4H227l0.2-113.5 122.5 0.1z m421.2 659.8L226 886l0.8-480.2H772V886c0 0.6-0.5 1.1-1.1 1.1z" fill="#4A5FE2" p-id="2428"></path><path d="M630.7 532.7H367.3c-17.9 0-32.6 14.7-32.6 32.6s14.7 32.6 32.6 32.6h263.4c17.9 0 32.6-14.7 32.6-32.6s-14.7-32.6-32.6-32.6zM630.7 654.9H367.3c-17.9 0-32.6 14.7-32.6 32.6 0 17.9 14.7 32.6 32.6 32.6h263.4c17.9 0 32.6-14.7 32.6-32.6 0-17.9-14.7-32.6-32.6-32.6z" fill="#A1AFFF" p-id="2429" data-spm-anchor-id="a313x.search_index.0.i0.6fd83a81XFrc2d" class="selected"></path></svg>