<svg width="20.000000" height="20.000000" viewBox="0 0 20 20" fill="none" xmlns="http://www.w3.org/2000/svg" xmlns:xlink="http://www.w3.org/1999/xlink">
	<desc>
			Created with Pixso.
	</desc>
	<defs>
		<clipPath id="clip2_26">
			<rect id="公告" width="20.000000" height="20.000000" fill="white"/>
		</clipPath>
	</defs>
	<g clip-path="url(#clip2_26)">
		<path id="path" d="M15.0566 3.16211L12.6641 3.16211L12.6641 2.56836C12.6641 2.22852 12.3848 1.94922 12.0449 1.94922L12.0098 1.94922C11.6699 1.94922 11.3906 2.22852 11.3906 2.56836L11.3906 3.16211L8.10156 3.16211L8.10156 2.56836C8.10156 2.22852 7.82227 1.94922 7.48242 1.94922L7.44727 1.94922C7.10742 1.94922 6.82812 2.22852 6.82812 2.56836L6.82812 3.16211L4.4375 3.16211C3.72266 3.16211 3.14258 3.74219 3.14258 4.45703L3.14258 17.3047C3.14258 18.0195 3.72266 18.5996 4.4375 18.5996L15.0566 18.5996C15.7715 18.5996 16.3516 18.0195 16.3516 17.3047L16.3516 4.45703C16.3516 3.74219 15.7695 3.16211 15.0566 3.16211ZM6.83008 4.43945L6.83008 4.79688C6.83008 5.13672 7.10742 5.41602 7.44922 5.41602L7.48438 5.41602C7.82422 5.41602 8.10352 5.13672 8.10352 4.79688L8.10352 4.44336L11.3926 4.44922L11.3926 4.79688C11.3926 5.13672 11.6699 5.41602 12.0117 5.41602L12.0469 5.41602C12.3867 5.41602 12.666 5.13672 12.666 4.79688L12.666 4.45312L15.0801 4.45898L15.0801 6.6543L4.43359 6.6543L4.4375 4.4375L6.83008 4.43945ZM15.0566 17.3262L4.41406 17.3047L4.42969 7.92578L15.0781 7.92578L15.0781 17.3047C15.0781 17.3164 15.0684 17.3262 15.0566 17.3262Z" fill-rule="nonzero" fill="#4A5FE2"/>
		<path id="path" d="M12.3184 10.4043L7.17383 10.4043C6.82422 10.4043 6.53711 10.6914 6.53711 11.041C6.53711 11.3906 6.82422 11.6777 7.17383 11.6777L12.3184 11.6777C12.668 11.6777 12.9551 11.3906 12.9551 11.041C12.9551 10.6914 12.668 10.4043 12.3184 10.4043ZM12.3184 12.791L7.17383 12.791C6.82422 12.791 6.53711 13.0781 6.53711 13.4277C6.53711 13.7773 6.82422 14.0645 7.17383 14.0645L12.3184 14.0645C12.668 14.0645 12.9551 13.7773 12.9551 13.4277C12.9551 13.0781 12.668 12.791 12.3184 12.791Z" fill-rule="nonzero" fill="#A1AFFF"/>
	</g>
</svg>
